<svg width="40" height="34" viewBox="0 0 40 34" fill="none" xmlns="http://www.w3.org/2000/svg">
<rect x="6" width="34" height="34" rx="17" fill="#3456F3"/>
<path fill-rule="evenodd" clip-rule="evenodd" d="M24.7929 18.2639C23.361 19.6958 21.0394 19.6958 19.6075 18.2639C18.1755 16.832 18.1755 14.5104 19.6075 13.0784C21.0394 11.6465 23.361 11.6465 24.7929 13.0784C26.2248 14.5104 26.2248 16.832 24.7929 18.2639ZM25.2333 19.6469C23.2731 21.1462 20.4575 20.9995 18.6647 19.2067C16.712 17.2541 16.712 14.0883 18.6647 12.1356C20.6173 10.183 23.7831 10.183 25.7357 12.1356C27.5285 13.9284 27.6753 16.7438 26.1761 18.704L29.7428 22.2707L28.8 23.2135L25.2333 19.6469Z" fill="white"/>
</svg>
